<svg width="40" height="32" viewBox="0 0 40 32" fill="none" xmlns="http://www.w3.org/2000/svg">
<path fill-rule="evenodd" clip-rule="evenodd" d="M12.5858 0.585786C12.9609 0.210714 13.4696 0 14 0H26C26.5304 0 27.0391 0.210714 27.4142 0.585786L30.8284 4H36C38.2091 4 40 5.79086 40 8V28C40 30.2091 38.2091 32 36 32H4C1.79086 32 0 30.2091 0 28V8C0 5.79086 1.79086 4 4 4H9.17157L12.5858 0.585786ZM14.8284 4L11.4142 7.41421C11.0391 7.78929 10.5304 8 10 8L4 8V28H36V8H30C29.4696 8 28.9609 7.78929 28.5858 7.41421L25.1716 4H14.8284ZM20 13C17.7909 13 16 14.7909 16 17C16 19.2091 17.7909 21 20 21C22.2091 21 24 19.2091 24 17C24 14.7909 22.2091 13 20 13ZM12 17C12 12.5817 15.5817 9 20 9C24.4183 9 28 12.5817 28 17C28 21.4183 24.4183 25 20 25C15.5817 25 12 21.4183 12 17Z" fill="#C4C4C4"/>
</svg>
