<svg width="41" height="40" viewBox="0 0 41 40" fill="none" xmlns="http://www.w3.org/2000/svg">
<path fill-rule="evenodd" clip-rule="evenodd" d="M20.5001 4.66666C11.8476 4.66666 4.83341 11.5316 4.83341 20C4.83341 28.4684 11.8476 35.3333 20.5001 35.3333C29.1525 35.3333 36.1667 28.4684 36.1667 20C36.1667 11.5316 29.1525 4.66666 20.5001 4.66666ZM0.916748 20C0.916748 9.41454 9.6845 0.833328 20.5001 0.833328C31.3157 0.833328 40.0834 9.41454 40.0834 20C40.0834 30.5855 31.3157 39.1667 20.5001 39.1667C9.6845 39.1667 0.916748 30.5855 0.916748 20Z" fill="#030303" fill-opacity="0.82"/>
<path fill-rule="evenodd" clip-rule="evenodd" d="M20.5001 23.8333C19.4185 23.8333 18.5417 22.9752 18.5417 21.9167L18.5417 10.4167C18.5417 9.35812 19.4185 8.5 20.5001 8.5C21.5816 8.5 22.4584 9.35812 22.4584 10.4167L22.4584 21.9167C22.4584 22.9752 21.5816 23.8333 20.5001 23.8333Z" fill="#030303" fill-opacity="0.82"/>
<path d="M17.5626 28.625C17.5626 27.0372 18.8777 25.75 20.5001 25.75C22.1224 25.75 23.4376 27.0372 23.4376 28.625C23.4376 30.2128 22.1224 31.5 20.5001 31.5C18.8777 31.5 17.5626 30.2128 17.5626 28.625Z" fill="#030303" fill-opacity="0.82"/>
</svg>
