<svg width="82" height="84" viewBox="0 0 82 84" fill="none" xmlns="http://www.w3.org/2000/svg">
<path d="M43.3537 18.6602H38.6565C38.2268 18.6602 37.8752 19.0117 37.8752 19.4414V46.3262C37.8752 46.5801 37.9924 46.8145 38.1975 46.9609L54.3401 58.748C54.6916 59.002 55.1799 58.9336 55.4338 58.582L58.2268 54.7734C58.4905 54.4121 58.4123 53.9238 58.0608 53.6797L44.135 43.6113V19.4414C44.135 19.0117 43.7834 18.6602 43.3537 18.6602ZM64.8186 26.0039L80.1311 29.7441C80.6194 29.8613 81.0979 29.4902 81.0979 28.9922L81.176 13.2207C81.176 12.5664 80.424 12.1953 79.9162 12.6055L64.5256 24.627C64.4093 24.7169 64.3207 24.8379 64.2701 24.976C64.2195 25.1141 64.2089 25.2636 64.2395 25.4075C64.2701 25.5513 64.3407 25.6836 64.4431 25.7891C64.5456 25.8946 64.6757 25.9691 64.8186 26.0039V26.0039ZM81.1955 55.4082L75.6584 53.5039C75.4654 53.4377 75.2541 53.4497 75.0698 53.5373C74.8854 53.6249 74.7427 53.7812 74.6721 53.9727C74.4865 54.4707 74.2912 54.959 74.0862 55.4473C72.3479 59.5586 69.8576 63.2598 66.674 66.4336C63.5258 69.5916 59.7948 72.1088 55.6877 73.8457C51.4331 75.6445 46.8597 76.5678 42.2405 76.5606C37.5725 76.5606 33.051 75.6523 28.7932 73.8457C24.6861 72.1088 20.9551 69.5916 17.8069 66.4336C14.633 63.2598 12.1428 59.5586 10.3947 55.4473C8.60585 51.1903 7.68932 46.6176 7.69943 42C7.69943 37.332 8.60764 32.8008 10.4143 28.543C12.1526 24.4316 14.6428 20.7305 17.8264 17.5566C20.9746 14.3986 24.7057 11.8814 28.8127 10.1445C33.051 8.33789 37.5822 7.42968 42.2502 7.42968C46.9182 7.42968 51.4397 8.33789 55.6975 10.1445C59.8045 11.8814 63.5356 14.3986 66.6838 17.5566C67.6799 18.5625 68.6174 19.6074 69.4768 20.7109L75.3166 16.1406C67.6311 6.3164 55.6682 -0.00195708 42.2307 0.00780855C18.8322 0.0175742 0.0431847 19.0215 0.27756 42.4297C0.511935 65.4277 19.2131 83.9922 42.2502 83.9922C60.3654 83.9922 75.7951 72.5078 81.674 56.4238C81.8205 56.0137 81.6057 55.5547 81.1955 55.4082V55.4082Z" fill="black"/>
</svg>
