<svg width="33" height="35" viewBox="0 0 33 35" fill="none" xmlns="http://www.w3.org/2000/svg">
<path d="M16.5 16.0417C18.0188 16.0417 19.25 14.7359 19.25 13.125C19.25 11.5142 18.0188 10.2084 16.5 10.2084C14.9812 10.2084 13.75 11.5142 13.75 13.125C13.75 14.7359 14.9812 16.0417 16.5 16.0417Z" stroke="#333333" stroke-width="2" stroke-linecap="round" stroke-linejoin="round"/>
<path d="M16.5 30.625C16.5 30.625 26.125 23.5577 26.125 14.4712C26.125 11.7935 25.1109 9.22549 23.3059 7.3321C21.5009 5.4387 19.0527 4.375 16.5 4.375C13.9473 4.375 11.4991 5.4387 9.6941 7.3321C7.88906 9.22549 6.875 11.7935 6.875 14.4712C6.875 23.5577 16.5 30.625 16.5 30.625Z" stroke="#333333" stroke-width="2" stroke-linecap="round" stroke-linejoin="round"/>
</svg>
