<svg width="26" height="32" viewBox="0 0 26 32" fill="none" xmlns="http://www.w3.org/2000/svg">
<path fill-rule="evenodd" clip-rule="evenodd" d="M10.9474 30.2222C10.9474 29.2404 10.3347 28.4444 9.57895 28.4444H2.73684V3.55556H9.57895C10.3347 3.55556 10.9474 2.75962 10.9474 1.77778C10.9474 0.795936 10.3347 0 9.57895 0H2.73684C1.22533 0 0 1.59188 0 3.55556V28.4444C0 30.4081 1.22533 32 2.73684 32H9.57895C10.3347 32 10.9474 31.2041 10.9474 30.2222Z" fill="#0D0D0D"/>
<path d="M25.6081 17.2454C25.7349 17.0777 25.8309 16.8854 25.8962 16.6805C25.9626 16.4724 25.9995 16.2444 26 16.0053L26 16L26 15.9947C25.999 15.5415 25.8654 15.0887 25.5992 14.7429L20.1255 7.63181C19.5911 6.93754 18.7247 6.93754 18.1903 7.63181C17.6559 8.32608 17.6559 9.4517 18.1903 10.146L21.3279 14.2222H8.21053C7.45477 14.2222 6.84211 15.0182 6.84211 16C6.84211 16.9818 7.45477 17.7778 8.21053 17.7778H21.3279L18.1903 21.854C17.6559 22.5483 17.6559 23.6739 18.1903 24.3682C18.7247 25.0625 19.5911 25.0625 20.1255 24.3682L25.5982 17.2583L25.6081 17.2454Z" fill="#0D0D0D"/>
</svg>
