<svg width="161" height="159" viewBox="0 0 161 159" fill="none" xmlns="http://www.w3.org/2000/svg">
<path fill-rule="evenodd" clip-rule="evenodd" d="M80.5 26.5C50.8607 26.5 26.8333 50.2289 26.8333 79.5C26.8333 108.771 50.8607 132.5 80.5 132.5C110.139 132.5 134.167 108.771 134.167 79.5C134.167 50.2289 110.139 26.5 80.5 26.5ZM13.4166 79.5C13.4166 42.9111 43.4509 13.25 80.5 13.25C117.549 13.25 147.583 42.9111 147.583 79.5C147.583 116.089 117.549 145.75 80.5 145.75C43.4509 145.75 13.4166 116.089 13.4166 79.5ZM111.79 57.9859C114.559 60.4167 114.809 64.6042 112.347 67.3389L76.5694 107.089C75.2964 108.503 73.4717 109.312 71.5555 109.312C69.6394 109.312 67.8147 108.503 66.5416 107.089L48.6528 87.2139C46.1913 84.4792 46.4408 80.2917 49.2099 77.8609C51.9789 75.4301 56.2191 75.6764 58.6805 78.4111L71.5555 92.7156L102.319 58.5361C104.781 55.8014 109.021 55.5551 111.79 57.9859Z" fill="#5E6B73"/>
</svg>
