<svg width="48" height="49" viewBox="0 0 48 49" fill="none" xmlns="http://www.w3.org/2000/svg">
<path d="M24 42.875C33.9411 42.875 42 34.6482 42 24.5C42 14.3518 33.9411 6.125 24 6.125C14.0589 6.125 6 14.3518 6 24.5C6 34.6482 14.0589 42.875 24 42.875Z" stroke="#333333" stroke-width="2" stroke-linecap="round" stroke-linejoin="round"/>
<path d="M34.4329 39.4701C31.8695 36.5475 28.145 34.7083 23.9997 34.7083C19.8544 34.7083 16.1298 36.5475 13.5664 39.4701" stroke="#333333" stroke-width="2" stroke-linecap="round" stroke-linejoin="round"/>
<path d="M24 28.5833C27.3137 28.5833 30 25.8411 30 22.4583C30 19.0756 27.3137 16.3333 24 16.3333C20.6863 16.3333 18 19.0756 18 22.4583C18 25.8411 20.6863 28.5833 24 28.5833Z" stroke="#333333" stroke-width="2" stroke-linecap="round" stroke-linejoin="round"/>
</svg>
