<svg width="31" height="30" viewBox="0 0 31 30" fill="none" xmlns="http://www.w3.org/2000/svg">
<path fill-rule="evenodd" clip-rule="evenodd" d="M15.4997 5C9.79273 5 5.16634 9.47715 5.16634 15C5.16634 20.5228 9.79273 25 15.4997 25C21.2066 25 25.833 20.5228 25.833 15C25.833 9.47715 21.2066 5 15.4997 5ZM2.58301 15C2.58301 8.09644 8.366 2.5 15.4997 2.5C22.6334 2.5 28.4163 8.09644 28.4163 15C28.4163 21.9036 22.6334 27.5 15.4997 27.5C8.366 27.5 2.58301 21.9036 2.58301 15Z" fill="#030303" fill-opacity="0.82"/>
<path fill-rule="evenodd" clip-rule="evenodd" d="M15.4997 17.5C14.7863 17.5 14.208 16.9404 14.208 16.25L14.208 8.75C14.208 8.05964 14.7863 7.5 15.4997 7.5C16.213 7.5 16.7913 8.05964 16.7913 8.75L16.7913 16.25C16.7913 16.9404 16.213 17.5 15.4997 17.5Z" fill="#030303" fill-opacity="0.82"/>
<path d="M13.5622 20.625C13.5622 19.5895 14.4296 18.75 15.4997 18.75C16.5697 18.75 17.4372 19.5895 17.4372 20.625C17.4372 21.6605 16.5697 22.5 15.4997 22.5C14.4296 22.5 13.5622 21.6605 13.5622 20.625Z" fill="#030303" fill-opacity="0.82"/>
</svg>
